<svg xmlns="http://www.w3.org/2000/svg" width="512" height="512" viewBox="0 0 512 512" fill="none">
  <!-- Icône pleine : fond dégradé violet + Goutte-cœur blanche. -->
  <defs>
    <linearGradient id="hgBg" x1="0" y1="0" x2="512" y2="512" gradientUnits="userSpaceOnUse">
      <stop offset="0" stop-color="#8A63F0"/>
      <stop offset="1" stop-color="#6C46D9"/>
    </linearGradient>
  </defs>
  <rect width="512" height="512" fill="url(#hgBg)"/>
  <circle cx="430" cy="70" r="120" fill="rgba(255,255,255,0.08)"/>
  <circle cx="80" cy="440" r="150" fill="rgba(255,255,255,0.06)"/>
  <g transform="translate(87 87) scale(0.66)">
    <path fill="#FFFFFF" fill-rule="evenodd" clip-rule="evenodd" d="M256 60 C298 134 388 228 388 316 A132 132 0 1 1 124 316 C124 228 214 134 256 60 Z M256 388 C218 358 196 336 196 310 C196 288 212 274 230 274 C242 274 252 281 256 291 C260 281 270 274 282 274 C300 274 316 288 316 310 C316 336 294 358 256 388 Z"/>
  </g>
</svg>
