<svg xmlns="http://www.w3.org/2000/svg" width="1200" height="450" viewBox="0 0 1200 450" fill="none">
  <defs>
    <linearGradient id="hgDrop" x1="256" y1="72" x2="256" y2="444" gradientUnits="userSpaceOnUse">
      <stop offset="0" stop-color="#10B981"/>
      <stop offset="1" stop-color="#059669"/>
    </linearGradient>
  </defs>
  <!-- Goutte -->
  <g transform="translate(-49.8 24) scale(0.78)">
    <path d="M256 72 C296 142 384 232 384 316 A128 128 0 1 1 128 316 C128 232 216 142 256 72 Z" fill="url(#hgDrop)"/>
    <ellipse cx="212" cy="232" rx="34" ry="70" transform="rotate(-28 212 232)" fill="#D1FAE5" opacity="0.22"/>
  </g>
  <!-- Wordmark « Hygiena+ » vectorisé (SF Rounded -> courbes, zero dependance police) -->
  <g>
    <path d="M230 -14Q271 -14 295.5 11.0Q320 36 320 79V657H1112V79Q1112 36 1136.5 11.0Q1161 -14 1202 -14Q1243 -14 1267.5 11.0Q1292 36 1292 79V1364Q1292 1407 1267.5 1432.0Q1243 1457 1202 1457Q1161 1457 1136.5 1432.0Q1112 1407 1112 1364V819H320V1364Q320 1407 295.5 1432.0Q271 1457 230 1457Q189 1457 164.5 1432.0Q140 1407 140 1364V79Q140 36 164.5 11.0Q189 -14 230 -14Z" transform="translate(290.00 271.80) scale(0.08789 -0.08789)" fill="#059669"/>
    <path d="M215 -389Q301 -389 362.0 -360.0Q423 -331 470.0 -261.5Q517 -192 562 -73L946 932Q955 958 955 978Q955 1013 931.5 1035.5Q908 1058 870 1058Q810 1058 788 994L500 174H497L210 994Q198 1029 178.0 1043.5Q158 1058 127 1058Q90 1058 65.0 1036.0Q40 1014 40 978Q40 958 49 932L407 -1L383 -74Q352 -168 307.5 -204.0Q263 -240 213 -240Q193 -240 183.0 -239.5Q173 -239 154 -239Q121 -239 102.5 -256.5Q84 -274 84 -303Q84 -344 118.0 -366.5Q152 -389 215 -389Z" transform="translate(417.97 271.80) scale(0.08789 -0.08789)" fill="#059669"/>
    <path d="M533 -392Q681 -393 788.5 -341.5Q896 -290 954.5 -196.5Q1013 -103 1013 21V968Q1013 1009 988.5 1033.5Q964 1058 926 1058Q889 1058 864.0 1033.5Q839 1009 839 968V869H836Q802 928 752.5 970.0Q703 1012 641.0 1035.0Q579 1058 505 1058Q371 1058 271.0 992.5Q171 927 116.5 807.0Q62 687 62 524Q62 363 116.5 243.0Q171 123 270.0 57.5Q369 -8 501 -8Q574 -8 638.0 15.0Q702 38 752.5 80.5Q803 123 835 179H839V15Q839 -101 759.5 -173.5Q680 -246 540 -244Q461 -242 400.0 -210.5Q339 -179 272 -106Q236 -66 199 -66Q165 -66 143.0 -87.0Q121 -108 121 -141Q121 -158 126.0 -173.5Q131 -189 141 -206Q196 -292 299.5 -341.0Q403 -390 533 -392ZM536 145Q447 145 380.0 191.0Q313 237 276.5 322.5Q240 408 240 524Q240 641 276.5 726.5Q313 812 380.0 858.5Q447 905 536 905Q627 905 695.0 857.5Q763 810 801.0 724.5Q839 639 839 524Q839 410 801.0 324.5Q763 239 695.0 192.0Q627 145 536 145Z" transform="translate(507.53 271.80) scale(0.08789 -0.08789)" fill="#059669"/>
    <path d="M209 1215Q254 1215 286.0 1247.0Q318 1279 318 1323Q318 1368 286.0 1399.5Q254 1431 209 1431Q165 1431 133.0 1399.5Q101 1368 101 1323Q101 1279 133.0 1247.0Q165 1215 209 1215ZM209 -18Q247 -18 271.5 8.0Q296 34 296 75V965Q296 1006 271.5 1032.0Q247 1058 209 1058Q171 1058 146.5 1032.0Q122 1006 122 965V75Q122 34 146.5 8.0Q171 -18 209 -18Z" transform="translate(608.52 271.80) scale(0.08789 -0.08789)" fill="#059669"/>
    <path d="M549 -18Q692 -18 797.0 39.5Q902 97 952 203Q965 234 965 254Q965 289 944.0 309.5Q923 330 888 330Q868 330 852.5 322.0Q837 314 823 295Q762 207 698.5 170.0Q635 133 542 133Q403 133 322.0 224.5Q241 316 241 473Q241 473 241.0 473.0Q241 473 241 473H891Q936 473 961.5 500.0Q987 527 987 574Q987 717 929.0 826.0Q871 935 769.0 996.5Q667 1058 534 1058Q391 1058 284.5 991.0Q178 924 120.0 802.0Q62 680 62 516Q62 264 190.5 123.0Q319 -18 549 -18ZM242 609Q248 699 286.0 766.0Q324 833 387.0 870.0Q450 907 531 907Q612 907 673.0 870.0Q734 833 769.5 766.0Q805 699 807 609Z" transform="translate(647.36 271.80) scale(0.08789 -0.08789)" fill="#059669"/>
    <path d="M200 -18Q238 -18 262.5 8.0Q287 34 287 75V612Q287 700 320.5 765.5Q354 831 415.0 867.5Q476 904 558 904Q678 904 737.5 837.0Q797 770 797 644V75Q797 34 821.5 8.0Q846 -18 884 -18Q922 -18 946.5 8.0Q971 34 971 75V675Q971 793 928.5 879.0Q886 965 805.5 1011.5Q725 1058 611 1058Q490 1058 407.5 1008.0Q325 958 281 874H277V970Q277 1009 254.0 1033.5Q231 1058 195 1058Q159 1058 136.0 1033.5Q113 1009 113 970V75Q113 34 137.5 8.0Q162 -18 200 -18Z" transform="translate(741.67 271.80) scale(0.08789 -0.08789)" fill="#059669"/>
    <path d="M416 -18Q486 -18 551.0 6.5Q616 31 668.0 75.5Q720 120 751 179H755Q755 152 755.0 124.5Q755 97 755 70Q755 31 778.0 6.5Q801 -18 838 -18Q874 -18 897.0 6.5Q920 31 920 70V719Q920 823 871.5 899.0Q823 975 733.5 1016.5Q644 1058 522 1058Q395 1058 290.5 1006.5Q186 955 142 869Q121 832 121 797Q121 762 142.5 740.5Q164 719 198 719Q247 719 270 761Q314 838 373.5 871.5Q433 905 518 905Q626 905 686.0 851.0Q746 797 746 702V615L447 598Q267 588 168.5 508.0Q70 428 70 294Q70 201 113.5 130.5Q157 60 235.0 21.0Q313 -18 416 -18ZM455 130Q361 130 304.0 175.0Q247 220 247 294Q247 368 304.5 412.0Q362 456 467 463L746 480V395Q746 320 707.5 260.0Q669 200 603.0 165.0Q537 130 455 130Z" transform="translate(838.61 271.80) scale(0.08789 -0.08789)" fill="#059669"/>
    <path d="M619 51Q656 51 678.0 75.5Q700 100 700 137V488H1031Q1068 488 1092.5 510.0Q1117 532 1117 569Q1117 606 1092.5 628.0Q1068 650 1031 650H700V1002Q700 1039 678.0 1063.5Q656 1088 619 1088Q582 1088 560.0 1063.5Q538 1039 538 1002V650H206Q169 650 144.5 628.0Q120 606 120 569Q120 532 144.5 510.0Q169 488 206 488H538V137Q538 100 560.0 75.5Q582 51 619 51Z" transform="translate(931.07 271.80) scale(0.08789 -0.08789)" fill="#FFB23E"/>
  </g>
</svg>
