<svg xmlns="http://www.w3.org/2000/svg" width="1200" height="450" viewBox="0 0 1200 450" fill="none">
  <!-- Lockup horizontal : Goutte-cœur + wordmark. -->
  <defs>
    <linearGradient id="hgDrop" x1="256" y1="60" x2="256" y2="448" gradientUnits="userSpaceOnUse">
      <stop offset="0" stop-color="#8A63F0"/>
      <stop offset="1" stop-color="#6C46D9"/>
    </linearGradient>
  </defs>
  <g transform="translate(30 30) scale(0.76)">
    <path fill="url(#hgDrop)" fill-rule="evenodd" clip-rule="evenodd" d="M256 60 C298 134 388 228 388 316 A132 132 0 1 1 124 316 C124 228 214 134 256 60 Z M256 388 C218 358 196 336 196 310 C196 288 212 274 230 274 C242 274 252 281 256 291 C260 281 270 274 282 274 C300 274 316 288 316 310 C316 336 294 358 256 388 Z"/>
  </g>
  <text x="450" y="290" font-family="Nunito, Arial Rounded MT Bold, sans-serif" font-size="150" font-weight="800" fill="#6C46D9">Hygiena<tspan fill="#FF8A3D">+</tspan></text>
</svg>
